<?xml version="1.0" encoding="UTF-8"?>
<svg id="Layer_2" data-name="Layer 2" xmlns="http://www.w3.org/2000/svg" xmlns:xlink="http://www.w3.org/1999/xlink" viewBox="0 0 220.6 220.6">
  <defs>
    <style>
      .cls-1 {
        fill: none;
      }

      .cls-2 {
        fill: url(#linear-gradient-8);
      }

      .cls-3 {
        fill: url(#linear-gradient-7);
      }

      .cls-4 {
        fill: url(#linear-gradient-5);
      }

      .cls-5 {
        fill: url(#linear-gradient-6);
      }

      .cls-6 {
        fill: url(#linear-gradient-9);
      }

      .cls-7 {
        fill: url(#linear-gradient-4);
      }

      .cls-8 {
        fill: url(#linear-gradient-3);
      }

      .cls-9 {
        fill: url(#linear-gradient-2);
      }

      .cls-10 {
        fill: url(#linear-gradient);
      }

      .cls-11 {
        fill: #fff;
      }

      .cls-12 {
        fill: url(#linear-gradient-43);
      }

      .cls-13 {
        fill: url(#linear-gradient-40);
      }

      .cls-14 {
        fill: url(#linear-gradient-41);
      }

      .cls-15 {
        fill: url(#linear-gradient-42);
      }

      .cls-16 {
        fill: url(#linear-gradient-49);
      }

      .cls-17 {
        fill: url(#linear-gradient-48);
      }

      .cls-18 {
        fill: url(#linear-gradient-45);
      }

      .cls-19 {
        fill: url(#linear-gradient-47);
      }

      .cls-20 {
        fill: url(#linear-gradient-44);
      }

      .cls-21 {
        fill: url(#linear-gradient-46);
      }

      .cls-22 {
        fill: url(#linear-gradient-10);
      }

      .cls-23 {
        fill: url(#linear-gradient-11);
      }

      .cls-24 {
        fill: url(#linear-gradient-12);
      }

      .cls-25 {
        fill: url(#linear-gradient-13);
      }

      .cls-26 {
        fill: url(#linear-gradient-19);
      }

      .cls-27 {
        fill: url(#linear-gradient-14);
      }

      .cls-28 {
        fill: url(#linear-gradient-21);
      }

      .cls-29 {
        fill: url(#linear-gradient-20);
      }

      .cls-30 {
        fill: url(#linear-gradient-22);
      }

      .cls-31 {
        fill: url(#linear-gradient-23);
      }

      .cls-32 {
        fill: url(#linear-gradient-28);
      }

      .cls-33 {
        fill: url(#linear-gradient-25);
      }

      .cls-34 {
        fill: url(#linear-gradient-32);
      }

      .cls-35 {
        fill: url(#linear-gradient-31);
      }

      .cls-36 {
        fill: url(#linear-gradient-33);
      }

      .cls-37 {
        fill: url(#linear-gradient-30);
      }

      .cls-38 {
        fill: url(#linear-gradient-15);
      }

      .cls-39 {
        fill: url(#linear-gradient-16);
      }

      .cls-40 {
        fill: url(#linear-gradient-17);
      }

      .cls-41 {
        fill: url(#linear-gradient-18);
      }

      .cls-42 {
        fill: url(#linear-gradient-35);
      }

      .cls-43 {
        fill: url(#linear-gradient-34);
      }

      .cls-44 {
        fill: url(#linear-gradient-36);
      }

      .cls-45 {
        fill: url(#linear-gradient-38);
      }

      .cls-46 {
        fill: url(#linear-gradient-27);
      }

      .cls-47 {
        fill: url(#linear-gradient-24);
      }

      .cls-48 {
        fill: url(#linear-gradient-26);
      }

      .cls-49 {
        fill: url(#linear-gradient-29);
      }

      .cls-50 {
        fill: url(#linear-gradient-37);
      }

      .cls-51 {
        fill: url(#linear-gradient-39);
      }

      .cls-52 {
        fill: url(#linear-gradient-57);
      }

      .cls-53 {
        fill: url(#linear-gradient-58);
      }

      .cls-54 {
        fill: url(#linear-gradient-59);
      }

      .cls-55 {
        fill: url(#linear-gradient-53);
      }

      .cls-56 {
        fill: url(#linear-gradient-54);
      }

      .cls-57 {
        fill: url(#linear-gradient-55);
      }

      .cls-58 {
        fill: url(#linear-gradient-56);
      }

      .cls-59 {
        fill: url(#linear-gradient-50);
      }

      .cls-60 {
        fill: url(#linear-gradient-51);
      }

      .cls-61 {
        fill: url(#linear-gradient-52);
      }

      .cls-62 {
        fill: url(#linear-gradient-67);
      }

      .cls-63 {
        fill: url(#linear-gradient-68);
      }

      .cls-64 {
        fill: url(#linear-gradient-69);
      }

      .cls-65 {
        fill: url(#linear-gradient-63);
      }

      .cls-66 {
        fill: url(#linear-gradient-64);
      }

      .cls-67 {
        fill: url(#linear-gradient-65);
      }

      .cls-68 {
        fill: url(#linear-gradient-66);
      }

      .cls-69 {
        fill: url(#linear-gradient-60);
      }

      .cls-70 {
        fill: url(#linear-gradient-61);
      }

      .cls-71 {
        fill: url(#linear-gradient-62);
      }

      .cls-72 {
        fill: url(#linear-gradient-79);
      }

      .cls-73 {
        fill: url(#linear-gradient-78);
      }

      .cls-74 {
        fill: url(#linear-gradient-75);
      }

      .cls-75 {
        fill: url(#linear-gradient-72);
      }

      .cls-76 {
        fill: url(#linear-gradient-77);
      }

      .cls-77 {
        fill: url(#linear-gradient-74);
      }

      .cls-78 {
        fill: url(#linear-gradient-76);
      }

      .cls-79 {
        fill: url(#linear-gradient-71);
      }

      .cls-80 {
        fill: url(#linear-gradient-73);
      }

      .cls-81 {
        fill: url(#linear-gradient-70);
      }

      .cls-82 {
        fill: url(#linear-gradient-82);
      }

      .cls-83 {
        fill: url(#linear-gradient-81);
      }

      .cls-84 {
        fill: url(#linear-gradient-80);
      }

      .cls-85 {
        opacity: .26;
      }

      .cls-86 {
        clip-path: url(#clippath);
      }
    </style>
    <clipPath id="clippath">
      <rect class="cls-1" width="220.6" height="220.6" rx="20.16" ry="20.16"/>
    </clipPath>
    <linearGradient id="linear-gradient" x1="-16.94" y1="232.9" x2="237.54" y2="232.9" gradientTransform="translate(0 343.2) scale(1 -1)" gradientUnits="userSpaceOnUse">
      <stop offset=".03" stop-color="#b3b3b2"/>
      <stop offset=".24" stop-color="#c1c1c0"/>
      <stop offset=".38" stop-color="#cfcfce"/>
      <stop offset=".58" stop-color="#c0c0bf"/>
      <stop offset=".72" stop-color="#b3b3b2"/>
      <stop offset="1" stop-color="#dadada"/>
      <stop offset="1" stop-color="#b3b3b2"/>
    </linearGradient>
    <linearGradient id="linear-gradient-2" x1="52.01" y1="240.42" x2="172.31" y2="240.42" gradientTransform="translate(0 343.2) scale(1 -1)" gradientUnits="userSpaceOnUse">
      <stop offset="0" stop-color="#e72369"/>
      <stop offset=".3" stop-color="#e72666"/>
      <stop offset=".6" stop-color="#e83260"/>
      <stop offset=".9" stop-color="#e94656"/>
      <stop offset="1" stop-color="#ea4f52"/>
    </linearGradient>
    <linearGradient id="linear-gradient-3" x1="34.88" y1="232.9" x2="185.72" y2="232.9" xlink:href="#linear-gradient-2"/>
    <linearGradient id="linear-gradient-4" x1="86.91" y1="309.07" x2="87.95" y2="309.07" gradientTransform="translate(0 343.2) scale(1 -1)" gradientUnits="userSpaceOnUse">
      <stop offset="0" stop-color="#e72369"/>
      <stop offset="0" stop-color="#e72568"/>
      <stop offset=".18" stop-color="#ea445e"/>
      <stop offset=".36" stop-color="#ec5d57"/>
      <stop offset=".55" stop-color="#ed6e52"/>
      <stop offset=".76" stop-color="#ee784f"/>
      <stop offset="1" stop-color="#ef7c4e"/>
    </linearGradient>
    <linearGradient id="linear-gradient-5" x1="86.74" y1="307.27" x2="86.78" y2="307.27" xlink:href="#linear-gradient-4"/>
    <linearGradient id="linear-gradient-6" x1="88.58" y1="312.07" x2="89.08" y2="312.07" xlink:href="#linear-gradient-4"/>
    <linearGradient id="linear-gradient-7" x1="89.79" y1="314.77" x2="91.65" y2="314.77" xlink:href="#linear-gradient-4"/>
    <linearGradient id="linear-gradient-8" x1="86.18" y1="305" x2="86.27" y2="305" xlink:href="#linear-gradient-4"/>
    <linearGradient id="linear-gradient-9" x1="85.86" y1="300.19" x2="85.87" y2="300.19" xlink:href="#linear-gradient-4"/>
    <linearGradient id="linear-gradient-10" x1="95.05" y1="319.46" x2="96.43" y2="319.46" xlink:href="#linear-gradient-4"/>
    <linearGradient id="linear-gradient-11" x1="90.01" y1="286.98" x2="91.61" y2="286.98" xlink:href="#linear-gradient-4"/>
    <linearGradient id="linear-gradient-12" x1="92.21" y1="316.88" x2="92.9" y2="316.88" xlink:href="#linear-gradient-4"/>
    <linearGradient id="linear-gradient-13" x1="98.64" y1="321.26" x2="99.36" y2="321.26" xlink:href="#linear-gradient-4"/>
    <linearGradient id="linear-gradient-14" x1="97.11" y1="320.52" x2="97.87" y2="320.52" xlink:href="#linear-gradient-4"/>
    <linearGradient id="linear-gradient-15" x1="93.56" y1="318.41" x2="95.05" y2="318.41" xlink:href="#linear-gradient-4"/>
    <linearGradient id="linear-gradient-16" x1="100.16" y1="321.87" x2="100.89" y2="321.87" xlink:href="#linear-gradient-4"/>
    <linearGradient id="linear-gradient-17" x1="103.53" y1="279.09" x2="105.07" y2="279.09" xlink:href="#linear-gradient-4"/>
    <linearGradient id="linear-gradient-18" x1="105.96" y1="278.81" x2="107.53" y2="278.81" xlink:href="#linear-gradient-4"/>
    <linearGradient id="linear-gradient-19" x1="110.48" y1="278.92" x2="111.13" y2="278.92" xlink:href="#linear-gradient-4"/>
    <linearGradient id="linear-gradient-20" x1="108.47" y1="278.76" x2="109.14" y2="278.76" xlink:href="#linear-gradient-4"/>
    <linearGradient id="linear-gradient-21" x1="114.99" y1="279.93" x2="115.44" y2="279.93" xlink:href="#linear-gradient-4"/>
    <linearGradient id="linear-gradient-22" x1="118.81" y1="281.65" x2="119.29" y2="281.65" xlink:href="#linear-gradient-4"/>
    <linearGradient id="linear-gradient-23" x1="116.89" y1="280.69" x2="117.44" y2="280.69" xlink:href="#linear-gradient-4"/>
    <linearGradient id="linear-gradient-24" x1="96.13" y1="281.79" x2="97.57" y2="281.79" xlink:href="#linear-gradient-4"/>
    <linearGradient id="linear-gradient-25" x1="92.19" y1="284.84" x2="93.4" y2="284.84" xlink:href="#linear-gradient-4"/>
    <linearGradient id="linear-gradient-26" x1="101.69" y1="322.36" x2="102.46" y2="322.36" xlink:href="#linear-gradient-4"/>
    <linearGradient id="linear-gradient-27" x1="94.12" y1="283.19" x2="95.37" y2="283.19" xlink:href="#linear-gradient-4"/>
    <linearGradient id="linear-gradient-28" x1="98.23" y1="280.55" x2="100.41" y2="280.55" xlink:href="#linear-gradient-4"/>
    <linearGradient id="linear-gradient-29" x1="100.87" y1="279.68" x2="102.7" y2="279.68" xlink:href="#linear-gradient-4"/>
    <linearGradient id="linear-gradient-30" x1="112.77" y1="279.27" x2="113.06" y2="279.27" xlink:href="#linear-gradient-4"/>
    <linearGradient id="linear-gradient-31" x1="108.58" y1="323.14" x2="109.54" y2="323.14" xlink:href="#linear-gradient-4"/>
    <linearGradient id="linear-gradient-32" x1="122.7" y1="316.89" x2="124.28" y2="316.89" xlink:href="#linear-gradient-4"/>
    <linearGradient id="linear-gradient-33" x1="110.29" y1="323" x2="111.15" y2="323" xlink:href="#linear-gradient-4"/>
    <linearGradient id="linear-gradient-34" x1="124.8" y1="314.74" x2="126.07" y2="314.74" xlink:href="#linear-gradient-4"/>
    <linearGradient id="linear-gradient-35" x1="106.4" y1="323.15" x2="107.93" y2="323.15" xlink:href="#linear-gradient-4"/>
    <linearGradient id="linear-gradient-36" x1="116.55" y1="321.15" x2="118.01" y2="321.15" xlink:href="#linear-gradient-4"/>
    <linearGradient id="linear-gradient-37" x1="113.48" y1="322.36" x2="114.38" y2="322.36" xlink:href="#linear-gradient-4"/>
    <linearGradient id="linear-gradient-38" x1="118.96" y1="320.13" x2="119.57" y2="320.13" xlink:href="#linear-gradient-4"/>
    <linearGradient id="linear-gradient-39" x1="111.9" y1="322.74" x2="112.76" y2="322.74" xlink:href="#linear-gradient-4"/>
    <linearGradient id="linear-gradient-40" x1="103.24" y1="322.74" x2="104.07" y2="322.74" xlink:href="#linear-gradient-4"/>
    <linearGradient id="linear-gradient-41" x1="104.81" y1="323" x2="105.75" y2="323" xlink:href="#linear-gradient-4"/>
    <linearGradient id="linear-gradient-42" x1="115.03" y1="321.86" x2="116.06" y2="321.86" xlink:href="#linear-gradient-4"/>
    <linearGradient id="linear-gradient-43" x1="100.41" y1="280.02" x2="100.87" y2="280.02" xlink:href="#linear-gradient-4"/>
    <linearGradient id="linear-gradient-44" x1="117.44" y1="281.17" x2="118.81" y2="281.17" xlink:href="#linear-gradient-4"/>
    <linearGradient id="linear-gradient-45" x1="118.01" y1="320.56" x2="118.96" y2="320.56" xlink:href="#linear-gradient-4"/>
    <linearGradient id="linear-gradient-46" x1="95.37" y1="282.46" x2="96.13" y2="282.46" xlink:href="#linear-gradient-4"/>
    <linearGradient id="linear-gradient-47" x1="102.7" y1="279.31" x2="103.53" y2="279.31" xlink:href="#linear-gradient-4"/>
    <linearGradient id="linear-gradient-48" x1="119.29" y1="282.35" x2="121.05" y2="282.35" xlink:href="#linear-gradient-4"/>
    <linearGradient id="linear-gradient-49" x1="116.06" y1="321.58" x2="116.55" y2="321.58" xlink:href="#linear-gradient-4"/>
    <linearGradient id="linear-gradient-50" x1="97.57" y1="281.21" x2="98.23" y2="281.21" xlink:href="#linear-gradient-4"/>
    <linearGradient id="linear-gradient-51" x1="111.13" y1="279.1" x2="112.77" y2="279.1" xlink:href="#linear-gradient-4"/>
    <linearGradient id="linear-gradient-52" x1="109.14" y1="278.83" x2="110.48" y2="278.83" xlink:href="#linear-gradient-4"/>
    <linearGradient id="linear-gradient-53" x1="113.06" y1="279.57" x2="114.99" y2="279.57" xlink:href="#linear-gradient-4"/>
    <linearGradient id="linear-gradient-54" x1="119.57" y1="318.81" x2="122.7" y2="318.81" xlink:href="#linear-gradient-4"/>
    <linearGradient id="linear-gradient-55" x1="124.28" y1="315.82" x2="124.8" y2="315.82" xlink:href="#linear-gradient-4"/>
    <linearGradient id="linear-gradient-56" x1="107.53" y1="278.75" x2="108.47" y2="278.75" xlink:href="#linear-gradient-4"/>
    <linearGradient id="linear-gradient-57" x1="97.81" y1="300.96" x2="118.28" y2="300.96" xlink:href="#linear-gradient-4"/>
    <linearGradient id="linear-gradient-58" x1="105.07" y1="278.91" x2="105.96" y2="278.91" xlink:href="#linear-gradient-4"/>
    <linearGradient id="linear-gradient-59" x1="115.44" y1="280.29" x2="116.89" y2="280.29" xlink:href="#linear-gradient-4"/>
    <linearGradient id="linear-gradient-60" x1="99.36" y1="321.58" x2="100.16" y2="321.58" xlink:href="#linear-gradient-4"/>
    <linearGradient id="linear-gradient-61" x1="89.08" y1="313.05" x2="89.79" y2="313.05" xlink:href="#linear-gradient-4"/>
    <linearGradient id="linear-gradient-62" x1="105.75" y1="323.08" x2="106.4" y2="323.08" xlink:href="#linear-gradient-4"/>
    <linearGradient id="linear-gradient-63" x1="91.65" y1="316.25" x2="92.21" y2="316.25" xlink:href="#linear-gradient-4"/>
    <linearGradient id="linear-gradient-64" x1="107.93" y1="323.17" x2="108.58" y2="323.17" xlink:href="#linear-gradient-4"/>
    <linearGradient id="linear-gradient-65" x1="96.43" y1="320.11" x2="97.11" y2="320.11" xlink:href="#linear-gradient-4"/>
    <linearGradient id="linear-gradient-66" x1="92.9" y1="317.52" x2="93.56" y2="317.52" xlink:href="#linear-gradient-4"/>
    <linearGradient id="linear-gradient-67" x1="102.46" y1="322.56" x2="103.24" y2="322.56" xlink:href="#linear-gradient-4"/>
    <linearGradient id="linear-gradient-68" x1="104.07" y1="322.88" x2="104.81" y2="322.88" xlink:href="#linear-gradient-4"/>
    <linearGradient id="linear-gradient-69" x1="93.4" y1="283.96" x2="94.12" y2="283.96" xlink:href="#linear-gradient-4"/>
    <linearGradient id="linear-gradient-70" x1="97.87" y1="320.91" x2="98.64" y2="320.91" xlink:href="#linear-gradient-4"/>
    <linearGradient id="linear-gradient-71" x1="114.38" y1="322.14" x2="115.03" y2="322.14" xlink:href="#linear-gradient-4"/>
    <linearGradient id="linear-gradient-72" x1="85.87" y1="298.87" x2="86.06" y2="298.87" xlink:href="#linear-gradient-4"/>
    <linearGradient id="linear-gradient-73" x1="85.85" y1="302.59" x2="86.18" y2="302.59" xlink:href="#linear-gradient-4"/>
    <linearGradient id="linear-gradient-74" x1="112.76" y1="322.57" x2="113.48" y2="322.57" xlink:href="#linear-gradient-4"/>
    <linearGradient id="linear-gradient-75" x1="91.61" y1="285.7" x2="92.19" y2="285.7" xlink:href="#linear-gradient-4"/>
    <linearGradient id="linear-gradient-76" x1="100.89" y1="322.12" x2="101.69" y2="322.12" xlink:href="#linear-gradient-4"/>
    <linearGradient id="linear-gradient-77" x1="86.27" y1="306.2" x2="86.74" y2="306.2" xlink:href="#linear-gradient-4"/>
    <linearGradient id="linear-gradient-78" x1="87.95" y1="311.03" x2="88.58" y2="311.03" xlink:href="#linear-gradient-4"/>
    <linearGradient id="linear-gradient-79" x1="86.78" y1="307.55" x2="86.91" y2="307.55" xlink:href="#linear-gradient-4"/>
    <linearGradient id="linear-gradient-80" x1="109.54" y1="323.08" x2="110.29" y2="323.08" xlink:href="#linear-gradient-4"/>
    <linearGradient id="linear-gradient-81" x1="111.15" y1="322.89" x2="111.9" y2="322.89" xlink:href="#linear-gradient-4"/>
    <linearGradient id="linear-gradient-82" x1="85.84" y1="300.96" x2="130.27" y2="300.96" xlink:href="#linear-gradient-4"/>
  </defs>
  <g id="Layer_2-2" data-name="Layer 2">
    <g class="cls-86">
      <g id="Layer_1-2" data-name="Layer 1-2">
        <g>
          <g id="UjhXs5.tif">
            <path class="cls-11" d="M56.18-13.49l107.72-.07c37.49,1.63,68.52,32.35,70.27,69.88v107.57c-1.57,37.63-32.35,68.38-69.87,70.27H56.72c-37.73-1.58-68.6-32.6-70.27-70.27V56.72C-11.84,19.18,18.58-11.61,56.18-13.49Z"/>
          </g>
          <g>
            <g id="UjhXs5.tif-2">
              <path class="cls-11" d="M54.7-16.87l110.66-.07c38.52,1.67,70.39,33.24,72.18,71.79v110.51c-1.62,38.66-33.24,70.25-71.78,72.18H55.25c-38.76-1.62-70.48-33.49-72.19-72.18V55.25C-15.18,16.69,16.07-14.95,54.7-16.87Z"/>
            </g>
            <g id="UjhXs5.tif-3" class="cls-85">
              <path class="cls-10" d="M54.7-16.87l110.66-.07c38.52,1.67,70.39,33.24,72.18,71.79v110.51c-1.62,38.66-33.24,70.25-71.78,72.18H55.25c-38.76-1.62-70.48-33.49-72.19-72.18V55.25C-15.18,16.69,16.07-14.95,54.7-16.87Z"/>
            </g>
          </g>
        </g>
      </g>
    </g>
    <g>
      <path class="cls-9" d="M52.58,59.14h0c.52,3.27,1.03,6.55,1.53,9.82h0c.12.8.25,1.61.37,2.41l1.14,7.38h0l.61,3.94c.56.49,1.12.98,1.69,1.46,1.16.98,2.33,1.95,3.52,2.91,7.99,6.43,16.18,11.9,24.53,16.43-2,5.07-4.31,10.23-6.83,15.39-1.86,3.82-3.84,7.63-5.88,11.4.28.48.55.96.83,1.45h0c2.69,4.52,5.77,9.21,9.27,14.11,2.37-4.16,4.7-8.41,6.93-12.72,3.87-7.48,7.46-15.11,10.48-22.64,5.72,2.29,11.5,4.16,17.34,5.59-2.34,7.6-4.37,15.59-6.01,23.98-2.1,10.71-3.55,22.07-4.18,34.05,1.42.82,3.16.91,4.65.25h0c.55-.24,1.06-.57,1.51-1,.88-.86,1.74-1.73,2.58-2.6h0c.76-.78,1.51-1.57,2.23-2.34.51-.54,1.01-1.09,1.51-1.64h0c1.24-1.34,2.46-2.69,3.67-4.07h0c.38-.43.76-.87,1.14-1.31,1.11-10.18,2.89-20.15,5.35-29.9,1.07-4.24,2.26-8.45,3.59-12.61,4.27.46,8.57.71,12.89.72,1.99,0,3.99-.05,6-.13.63-1.31,1.24-2.62,1.84-3.94h0c.25-.55.52-1.1.76-1.66.56-1.27,1.06-2.58,1.56-3.9h0c.3-.8.59-1.59.89-2.42.41-1.12.82-2.24,1.24-3.34h0c.07-.18.13-.37.2-.55.11-.33.22-.7.32-1.04-6.71.77-13.37.91-19.95.45,5.31-12.98,11.95-25.52,19.88-37.6,1.58-2.41,3.2-4.8,4.88-7.17,1.56-2.19,3.13-4.31,4.7-6.37.07-.46.14-.92.21-1.37h0c.36-2.32.72-4.63,1.08-6.93h0c.3-1.89.59-3.78.89-5.65l.2-1.26h0l.56-3.49c.08-.59-.29-1.14-.86-1.26-1.65-.34-3.27-.66-4.86-.96h0c-.4-.08-.79-.15-1.19-.23-4.55,5.31-9.16,11.12-13.68,17.44-.72,1.01-1.45,2.05-2.18,3.1-9.26,13.39-18.59,29.84-26.1,49.3-5.83-1.35-11.61-3.18-17.33-5.52,1.62-5.62,2.8-11.08,3.4-16.27.52-4.5-2.71-8.56-7.2-9.08-4.5-.52-8.56,2.71-9.08,7.2-.4,3.45-1.1,7.06-2.06,10.79-6.46-3.71-12.83-8.07-19.12-13.1-3.78-3.02-7.35-6.15-10.71-9.32-3.32-3.13-6.43-6.3-9.32-9.43.18,1.09.35,2.19.52,3.28l.05-.03Z"/>
      <path class="cls-8" d="M185.69,26.24l-.03.4c-1.1,15.56-2.03,31.14-3.39,46.66-.35,3.93-.52,7.69-1.03,11.73-.57,4.05-.94,8.19-1.73,12.21-.92,3.99-1.72,8.04-2.89,11.97-1.32,3.86-2.45,7.82-3.94,11.63-5.9,15.19-13.83,29.51-23.59,42.58-4.8,6.52-9.97,12.76-15.45,18.71-5.53,6.09-11.44,11.79-17.72,17.1l-.02.02c-1.54,1.29-3.45,1.94-5.34,1.94s-3.78-.64-5.32-1.92c-6.33-5.26-12.29-10.94-17.86-17.01-5.53-5.91-10.74-12.16-15.58-18.66-9.85-13.05-17.82-27.4-23.67-42.67-1.29-3.89-2.72-7.76-3.88-11.68-.97-4.01-2.05-7.98-2.78-12.03-.56-4.07-1.21-8.22-1.67-12.19l-1.05-11.67c-1.49-15.53-2.57-31.12-3.83-46.68l-.03-.43c-.24-2.89,2.4-5.17,5.21-4.53l.08.02c11.19,2.59,22.52,4.58,33.92,5.94,4.08.54,8.2.84,12.33.89-.75,1.18-1.38,2.4-1.92,3.67-3.54.37-7.1.54-10.66.56-5.9.08-11.78-.21-17.66-.57-3.83-.27-7.63-.6-11.44-.99,2.24,13.53,4.58,27.04,6.58,40.59l1.78,11.57c.67,3.74,1.48,7.26,2.19,10.89.89,3.58,2.1,7.09,3.05,10.63,1.18,3.5,2.61,6.93,3.88,10.39,5.67,13.7,13.86,26.3,22.86,38.24,4.55,5.96,9.42,11.67,14.61,17.07,1.29,1.37,3.19,3.24,5.05,5.02,3.24,3.12,8.38,3.1,11.59-.06,1.67-1.65,3.31-3.32,4.9-5.02,5.15-5.44,10-11.16,14.51-17.13,9.12-11.79,16.78-24.65,22.82-38.29,1.48-3.39,2.61-6.9,3.96-10.35,1.16-3.51,2.02-7.09,3.13-10.62.94-3.56,1.46-7.2,2.24-10.82.7-3.66,1.16-7.66,1.75-11.48,1.78-12.76,3.81-25.48,5.82-38.21.35-2.26-1.11-4.4-3.35-4.86-8.49-1.75-17.1-3.23-25.72-4.2-5.69-.76-11.43-1.07-17.15-.91-1.11.02-2.23.1-3.32.24-.65-.64-1.34-1.22-2.05-1.78,1.64-.56,3.32-.97,5.04-1.26,5.86-.97,11.81-1.45,17.75-1.46,5.91-.08,11.81.19,17.69.57,5.9.41,11.7.86,17.63,1.68,2.24.32,3.88,2.29,3.72,4.55h-.02Z"/>
      <path class="cls-7" d="M86.91,35.48c.29-.91.63-1.81,1.04-2.68-.41.87-.75,1.77-1.04,2.68Z"/>
      <path class="cls-4" d="M86.77,35.89s-.02.09-.03.14c.02-.06.03-.12.05-.18,0,0-.01.03-.01.04h-.01Z"/>
      <path class="cls-5" d="M88.58,31.57c.16-.29.33-.58.5-.86-.17.28-.34.57-.5.86Z"/>
      <path class="cls-3" d="M89.79,29.6c.56-.81,1.19-1.59,1.86-2.33-.68.74-1.31,1.51-1.86,2.33Z"/>
      <path class="cls-2" d="M86.18,38.44c.03-.15.06-.3.09-.46-.03.15-.06.3-.09.46Z"/>
      <path class="cls-6" d="M85.87,43.25c0-.15-.01-.31-.02-.46,0,.15,0,.31.02.46Z"/>
      <path class="cls-22" d="M95.05,24.21c.45-.33.92-.63,1.39-.92-.47.29-.93.59-1.39.92Z"/>
      <path class="cls-23" d="M91.61,57.21c-.56-.62-1.1-1.27-1.6-1.96.5.69,1.04,1.34,1.6,1.96Z"/>
      <path class="cls-24" d="M92.25,26.61s-.02.03-.04.04c.22-.23.46-.44.69-.65-.22.2-.45.4-.66.61h.01Z"/>
      <path class="cls-25" d="M98.64,22.11c.24-.11.48-.22.72-.33-.24.1-.48.21-.72.33Z"/>
      <path class="cls-27" d="M97.11,22.9c.25-.14.51-.29.76-.42-.26.13-.51.28-.76.42Z"/>
      <path class="cls-38" d="M93.56,25.38c.47-.41.97-.8,1.48-1.17-.52.37-1.01.77-1.48,1.17Z"/>
      <path class="cls-39" d="M100.16,21.47c.24-.09.49-.18.73-.26-.25.08-.49.17-.73.26Z"/>
      <path class="cls-40" d="M105.07,64.25c-.52-.07-1.03-.16-1.55-.27.51.11,1.03.2,1.55.27Z"/>
      <path class="cls-41" d="M107.53,64.44c-.53-.01-1.05-.04-1.58-.09.52.05,1.05.08,1.58.09Z"/>
      <path class="cls-26" d="M111.13,64.25c-.22.03-.43.05-.65.07.22-.02.43-.04.65-.07Z"/>
      <path class="cls-29" d="M109.14,64.43c-.22.01-.45.02-.67.03.22,0,.45-.01.67-.03Z"/>
      <path class="cls-28" d="M115.44,63.2c-.15.05-.3.11-.45.16.15-.05.3-.11.45-.16Z"/>
      <path class="cls-30" d="M119.29,61.42c-.16.09-.32.18-.48.27.16-.09.32-.17.48-.27Z"/>
      <path class="cls-31" d="M117.44,62.39c-.18.09-.37.17-.55.25.19-.08.37-.16.55-.25Z"/>
      <path class="cls-47" d="M97.57,61.83c-.49-.26-.97-.53-1.44-.83.47.3.95.57,1.44.83Z"/>
      <path class="cls-33" d="M93.4,58.95c-.42-.37-.82-.75-1.21-1.16.39.4.79.79,1.21,1.16Z"/>
      <path class="cls-48" d="M101.69,20.95c.26-.08.51-.14.77-.21-.26.07-.51.13-.77.21Z"/>
      <path class="cls-46" d="M95.37,60.48c-.43-.29-.84-.61-1.25-.93.41.33.82.64,1.25.93Z"/>
      <path class="cls-32" d="M100.41,63.12c-.74-.27-1.47-.58-2.18-.93.71.35,1.44.66,2.18.93Z"/>
      <path class="cls-49" d="M102.7,63.8c-.62-.15-1.23-.34-1.83-.54.6.21,1.21.39,1.83.54Z"/>
      <path class="cls-37" d="M113.06,63.91c-.1.02-.19.03-.29.06.1-.02.19-.03.29-.06Z"/>
      <path class="cls-35" d="M108.58,20.05c.32,0,.64.02.96.04-.32-.02-.64-.03-.96-.04Z"/>
      <path class="cls-34" d="M122.7,25.55c.55.47,1.07,1,1.58,1.54-.51-.54-1.03-1.07-1.58-1.54Z"/>
      <path class="cls-36" d="M110.29,20.16c.29.03.58.06.86.1-.29-.04-.58-.07-.86-.1Z"/>
      <path class="cls-43" d="M125.25,28.19c-.14-.18-.3-.34-.45-.51.44.51.88,1.02,1.28,1.57-.27-.37-.53-.72-.82-1.06h-.01Z"/>
      <path class="cls-42" d="M106.4,20.09c.51-.04,1.02-.06,1.53-.06-.51,0-1.02.02-1.53.06Z"/>
      <path class="cls-44" d="M117.97,22.37c-.47-.23-.94-.45-1.43-.65.5.2.98.43,1.47.67-.01,0-.03-.01-.04-.02Z"/>
      <path class="cls-50" d="M113.48,20.72c.3.08.6.16.9.25-.3-.09-.6-.17-.9-.25Z"/>
      <path class="cls-45" d="M118.96,22.91c.2.12.41.22.62.34-.2-.12-.41-.23-.62-.34Z"/>
      <path class="cls-51" d="M111.9,20.38c.29.05.58.11.86.17-.29-.06-.57-.12-.86-.17Z"/>
      <path class="cls-13" d="M103.24,20.55c.27-.06.55-.11.83-.16-.28.05-.55.1-.83.16Z"/>
      <path class="cls-14" d="M104.81,20.26c.31-.05.63-.08.94-.11-.31.03-.63.06-.94.11Z"/>
      <path class="cls-15" d="M115.03,21.16c.35.11.69.24,1.03.37-.34-.13-.68-.26-1.03-.37Z"/>
      <path class="cls-12" d="M100.87,63.26c-.15-.05-.31-.09-.46-.14.15.06.31.09.46.14Z"/>
      <path class="cls-20" d="M118.81,61.69c-.45.25-.9.48-1.37.7.46-.21.92-.45,1.37-.7Z"/>
      <path class="cls-18" d="M118.01,22.39c.32.16.63.34.94.52-.31-.18-.62-.36-.94-.52Z"/>
      <path class="cls-21" d="M96.13,61c-.26-.16-.51-.34-.76-.51.25.17.5.35.76.51Z"/>
      <path class="cls-19" d="M103.53,63.98c-.27-.06-.55-.11-.82-.17.27.07.55.12.82.17Z"/>
      <path class="cls-17" d="M121.05,60.29c-.57.41-1.16.79-1.76,1.14.6-.35,1.19-.72,1.76-1.14Z"/>
      <path class="cls-16" d="M116.06,21.54c.16.06.33.12.49.18-.16-.07-.33-.12-.49-.18Z"/>
      <path class="cls-59" d="M98.23,62.18c-.23-.11-.44-.24-.66-.36.22.12.44.25.66.36Z"/>
      <path class="cls-60" d="M112.77,63.96c-.55.12-1.09.21-1.65.29.55-.08,1.1-.17,1.65-.29Z"/>
      <path class="cls-61" d="M110.48,64.33c-.45.05-.89.08-1.34.1.45-.02.89-.06,1.34-.1Z"/>
      <path class="cls-55" d="M114.99,63.37c-.64.21-1.28.39-1.93.54.65-.15,1.29-.33,1.93-.54Z"/>
      <path class="cls-56" d="M122.7,25.55c-.27-.25-.53-.49-.81-.68-.27-.24-.54-.44-.82-.63-.49-.35-.98-.68-1.49-.99.51.31,1,.63,1.48.99.57.4,1.12.84,1.65,1.31h-.01Z"/>
      <path class="cls-57" d="M124.28,27.09c.18.19.35.39.52.59-.17-.2-.34-.4-.52-.59Z"/>
      <path class="cls-58" d="M108.08,64.47c.13,0,.26-.01.39-.01-.31,0-.62,0-.94-.02.18,0,.36.03.55.03Z"/>
      <path class="cls-52" d="M114.41,34.22c-.66-.53-1.4-.97-2.15-1.31-3.22-1.44-7.13-1.18-10.21,1.03-4.58,3.3-5.61,9.72-2.31,14.3,3.3,4.58,9.72,5.61,14.3,2.31s5.61-9.72,2.31-14.3c-.56-.78-1.22-1.46-1.94-2.03ZM113.17,49.36c-1.5,1.07-3.27,1.65-5.11,1.65-2.83,0-5.49-1.35-7.13-3.64-1.37-1.88-1.91-4.21-1.53-6.52.37-2.31,1.62-4.34,3.52-5.71,1.49-1.08,3.27-1.65,5.11-1.65,2.81,0,5.48,1.35,7.13,3.64,2.83,3.92,1.93,9.41-1.99,12.24h0Z"/>
      <path class="cls-53" d="M105.96,64.35c-.3-.03-.59-.06-.88-.1.29.04.59.07.88.1Z"/>
      <path class="cls-54" d="M116.89,62.64c-.48.21-.96.39-1.45.56.49-.17.97-.36,1.45-.56Z"/>
      <path class="cls-69" d="M99.36,21.79c.26-.11.53-.21.8-.32-.27.1-.53.2-.8.32Z"/>
      <path class="cls-70" d="M89.3,30.32c-.08.13-.15.26-.22.39.23-.37.45-.75.71-1.11-.19.24-.34.47-.49.72Z"/>
      <path class="cls-71" d="M105.75,20.16c.22-.02.43-.05.65-.07-.22.02-.43.05-.65.07Z"/>
      <path class="cls-65" d="M91.65,27.27c.19-.21.36-.42.56-.62-.2.2-.38.41-.56.62Z"/>
      <path class="cls-66" d="M108.02,20.03h-.09c.22,0,.43.01.65.02-.19,0-.38-.02-.56-.02Z"/>
      <path class="cls-67" d="M96.43,23.29c.22-.14.45-.26.68-.39-.23.13-.45.25-.68.39Z"/>
      <path class="cls-68" d="M92.9,26c.22-.21.43-.42.66-.62-.23.2-.44.41-.66.62Z"/>
      <path class="cls-62" d="M102.46,20.74c.26-.07.52-.13.78-.19-.26.06-.52.12-.78.19Z"/>
      <path class="cls-63" d="M104.07,20.39c.25-.04.5-.09.75-.13-.25.04-.5.09-.75.13Z"/>
      <path class="cls-64" d="M94.12,59.55c-.24-.19-.48-.39-.72-.6.23.21.47.4.72.6Z"/>
      <path class="cls-81" d="M97.87,22.48c.25-.13.51-.25.77-.37-.26.12-.51.24-.77.37Z"/>
      <path class="cls-79" d="M114.38,20.97c.22.06.43.13.65.2-.22-.07-.43-.13-.65-.2Z"/>
      <path class="cls-75" d="M86.06,45.43c-.1-.72-.16-1.45-.19-2.18.03.73.09,1.45.19,2.18Z"/>
      <path class="cls-80" d="M85.86,42.79c-.03-1.46.08-2.91.32-4.35-.25,1.43-.36,2.89-.32,4.35Z"/>
      <path class="cls-77" d="M112.76,20.55c.24.05.48.11.71.17-.24-.06-.48-.11-.71-.17Z"/>
      <path class="cls-74" d="M92.19,57.8c-.19-.2-.39-.38-.58-.59.19.2.38.39.58.59Z"/>
      <path class="cls-78" d="M100.89,21.21c.27-.09.53-.18.8-.25-.27.08-.53.17-.8.25Z"/>
      <path class="cls-76" d="M86.27,37.99c.13-.66.28-1.32.47-1.96-.19.65-.34,1.3-.47,1.96Z"/>
      <path class="cls-73" d="M88.3,32.04c-.12.25-.25.5-.35.75.19-.42.41-.82.63-1.23-.09.16-.19.31-.28.48Z"/>
      <path class="cls-72" d="M86.78,35.84c.04-.12.09-.25.12-.37-.04.12-.09.24-.12.37Z"/>
      <path class="cls-84" d="M109.54,20.09c.25.02.5.05.75.07-.25-.03-.5-.05-.75-.07Z"/>
      <path class="cls-83" d="M111.15,20.26c.25.04.5.08.75.12-.25-.04-.5-.09-.75-.12Z"/>
      <path class="cls-82" d="M127.15,30.9c-.34-.56-.68-1.12-1.07-1.65-.4-.55-.84-1.07-1.28-1.57-.17-.2-.34-.4-.52-.59-.51-.54-1.03-1.07-1.58-1.54-.53-.47-1.08-.91-1.65-1.31-.48-.35-.97-.68-1.48-.99-.2-.12-.41-.23-.62-.34-.31-.18-.63-.36-.94-.52-.48-.24-.97-.46-1.47-.67-.16-.07-.33-.12-.49-.18-.34-.13-.68-.26-1.03-.37-.22-.07-.43-.13-.65-.2-.3-.09-.6-.17-.9-.25-.24-.06-.48-.11-.71-.17-.29-.06-.57-.12-.86-.17-.25-.04-.5-.09-.75-.12-.29-.04-.58-.07-.86-.1-.25-.03-.5-.05-.75-.07-.32-.02-.64-.03-.96-.04-.22,0-.43-.02-.65-.02-.51,0-1.02.02-1.53.06-.22.02-.43.05-.65.07-.31.03-.63.06-.94.11-.25.04-.5.08-.75.13-.28.05-.55.1-.83.16-.26.06-.52.12-.78.19s-.51.13-.77.21c-.27.08-.53.17-.8.25-.25.08-.49.17-.73.26-.27.1-.53.2-.8.32-.24.1-.48.21-.72.33-.26.12-.52.24-.77.37-.26.13-.51.28-.76.42-.23.13-.45.25-.68.39-.47.29-.93.59-1.39.92-.52.37-1.01.77-1.48,1.17-.23.2-.44.41-.66.62-.23.22-.47.43-.69.65-.2.2-.37.41-.56.62-.67.74-1.3,1.51-1.86,2.33-.26.36-.48.73-.71,1.11-.17.28-.34.57-.5.86-.22.41-.44.81-.63,1.23-.41.87-.75,1.77-1.04,2.68-.04.12-.09.24-.12.37-.02.06-.03.12-.05.18-.19.65-.34,1.3-.47,1.96-.03.15-.06.3-.09.46-.25,1.43-.36,2.89-.32,4.35,0,.15,0,.31.02.46.03.73.09,1.45.19,2.18.49,3.45,1.78,6.82,3.95,9.82.5.69,1.04,1.34,1.6,1.96.19.2.38.39.58.59.39.4.79.79,1.21,1.16.23.21.47.4.72.6.41.33.82.64,1.25.93.25.17.5.35.76.51.47.3.95.57,1.44.83.22.12.44.25.66.36.71.35,1.44.66,2.18.93.15.06.31.09.46.14.6.2,1.21.39,1.83.54.27.07.55.12.82.17.51.11,1.03.2,1.55.27.29.04.59.07.88.1.52.05,1.05.08,1.58.09.31,0,.62.02.94.02.22,0,.45-.01.67-.03.45-.02.89-.06,1.34-.1.22-.02.43-.04.65-.07.55-.08,1.1-.17,1.65-.29.1-.02.19-.03.29-.06.65-.15,1.29-.33,1.93-.54.15-.05.3-.11.45-.16.49-.17.97-.36,1.45-.56.19-.08.37-.16.55-.25.46-.21.92-.45,1.37-.7.16-.09.32-.17.48-.27.6-.35,1.19-.72,1.76-1.14,9.41-6.79,11.91-19.61,6.1-29.39h0ZM114.04,50.55c-4.58,3.3-11,2.27-14.3-2.31s-2.27-11,2.31-14.3c3.08-2.21,6.98-2.47,10.21-1.03.75.34,1.49.78,2.15,1.31.72.57,1.38,1.25,1.94,2.03,3.3,4.58,2.27,11-2.31,14.3Z"/>
    </g>
  </g>
</svg>