<?xml version="1.0" encoding="UTF-8"?>
<svg id="haibo-logo" xmlns="http://www.w3.org/2000/svg" xmlns:xlink="http://www.w3.org/1999/xlink" viewBox="0 0 537.13 644.35">
  <defs>
    <radialGradient id="Summer_Green_Radial" cx="269" cy="286.57" fx="269" fy="286.57" r="235.27" gradientUnits="userSpaceOnUse">
      <stop offset="0" stop-color="#77c697"/>
      <stop offset=".26" stop-color="#37bb80"/>
      <stop offset=".5" stop-color="#00b36c"/>
      <stop offset=".54" stop-color="#00b169"/>
      <stop offset="1" stop-color="#00a652"/>
    </radialGradient>
    <linearGradient id="Blue" x1="385.56" y1="117.96" x2="385.56" y2="497.94" gradientUnits="userSpaceOnUse">
      <stop offset="0" stop-color="#2bc4f3"/>
      <stop offset=".5" stop-color="#00aeee"/>
      <stop offset="1" stop-color="#0095da"/>
    </linearGradient>
  </defs>
  <g>
    <path fill="url(#Summer_Green_Radial)" d="M481.13,58.55s-84.54,107.1-125.39,268.01c-17.48,68.86-75.98,133.15-79.38,215.77,0,0-12.84,1.71-15.91-.82-65.22-53.86-84.16-97.02-84.16-97.02l-19.86-43.55,64.1-160.25-17.26,18.9-112.59-69.03-21.77-54.16-12.04-73.54s101.92,7.98,120.1.32c38.39-16.19,74.79-29.59,74.79-29.59l58.44-3.36s144.21,5,170.92,28.31Z"/>
    <path fill="url(#Blue)" d="M471.77,117.96s3.4,216.32-152.07,379.98l-20.35-32.52,56.4-138.86,40.51-121.99,75.52-86.62Z"/>
    <circle fill="#fff" cx="259.84" cy="88.56" r="21.03"/>
    <path fill="#fff" d="M216.38,175.66h-.26c-4.31-.24-8.23-2.15-11.04-5.39-2.92-3.37-4.41-7.94-4.13-12.63-.03-3.38-.09-6.39-.18-9.16-13.66-13.31-22.02-29.14-24.89-47.09l-.02-.12c-.45-2.89-1.01-6.43-.79-10.1-.04-.63-.06-1.29-.07-1.93-.08-1.1-.12-2.27-.03-3.5-.02-.82.01-1.64.1-2.46-.13-3.88.4-7.47.93-10.56,5.85-34.43,32.31-60.95,67.42-67.57,4.85-.92,9.3-1.36,13.6-1.36.46,0,.91,0,1.37.02.86-.05,1.73-.07,2.59-.07s1.82.03,2.72.08h.22c21.42,0,42.57,8.56,58.04,23.48,15.56,14.97,24.62,35.89,24.86,57.38v5.4c.18,16.44-5.51,33.3-16.02,47.49-15.85,21.46-41.32,33.77-69.87,33.77h0c-7.94,0-15.82-.99-23.47-2.94-.17.07-.39.17-.69.3-4.43,2.09-8.92,4.11-13.34,5.99l-1.19.5-3.4.5h-2.43ZM260.8,68.53c-4.23,0-8.26,1.3-11.65,3.75-4.36,3.14-7.22,7.78-8.06,13.06-.88,5.35.35,10.62,3.45,14.88,3.77,5.26,9.87,8.37,16.36,8.37,4.18,0,8.23-1.31,11.71-3.8l.72-.51c8.33-6.63,10.08-18.73,3.8-27.42-3.76-5.22-9.87-8.33-16.33-8.33Z"/>
    <path fill="#fff" d="M97.67,166.33c-11.51-10.85-22.32-21.83-32.33-32.71-.07-.03-.14-.03-.14.03.84,5.02,8.16,51.03,8.58,53.78l3.98,25.74,2.13,13.71s0,.03.03.07c1.92,1.71,3.87,3.38,5.86,5.06,4.05,3.42,8.13,6.8,12.28,10.15,24.62,19.85,49.84,37.04,75.47,51.69,5.13-5.02,9.66-9.59,12.83-12.8,1.43-1.46,3.84-.03,3.28,1.92-2.3,7.92-7.05,19.74-12.45,32.26-3.8,8.75-7.92,17.89-11.79,26.23-1.85,3.87-3.7,7.78-5.62,11.68-3.24,6.63-6.56,13.25-9.97,19.85-3.42,6.66-6.94,13.29-10.5,19.88v.21c10.01,17.23,21.69,35.19,35.12,54.03.03.03.1.03.14-.03,8.23-14.47,16.36-29.26,24.1-44.26,10.39-20.09,20.19-40.49,28.95-60.79-9.03-10.22-18.17-19.53-23.86-26.61-1.64-2.02.59-4.95,2.89-3.84,9.42,4.53,19.01,8.65,28.53,12.35.03-.03.07-.03.1-.03,2.41.94,4.78,1.88,7.18,2.83.35.14.7.24,1.05.38,16.5,6.24,33.13,11.51,49.91,15.69.73.17,1.46.38,2.2.56l.03.03c14.89,3.87,27.34,6.52,35.4,8.13,2.48.49,2.55,4.08.14,4.81-10.53,3.21-27.73,8.65-43.42,14.51-4.88,18.1-9.28,36.83-13.04,56.15-7.32,37.35-12.38,76.94-14.58,118.72,0,.03.03.03.03.07,4.95,2.83,10.99,3.14,16.18.84,1.92-.84,3.7-1.99,5.27-3.49,3.07-3,6.07-6.03,9-9.07,2.65-2.72,5.27-5.48,7.78-8.16,1.78-1.88,3.52-3.8,5.27-5.72,4.32-4.67,8.58-9.38,12.8-14.2,1.33-1.5,2.65-3,3.98-4.53v-.03c3.87-35.51,10.08-70.28,18.66-104.28,3.42-13.46,7.15-26.86,11.3-40.11.7-2.23,2.89-3.66,5.27-3.45,13.57,1.36,27.2,2.06,40.91,2.09,6.94,0,13.88-.17,20.89-.45t.07-.03c2.16-4.57,4.29-9.1,6.38-13.71.87-1.92,1.81-3.84,2.65-5.79,1.95-4.43,3.7-9,5.44-13.6,1.05-2.79,2.06-5.55,3.1-8.44,1.43-3.91,2.86-7.81,4.32-11.65.24-.63.45-1.29.7-1.92.38-1.15.77-2.44,1.12-3.63-21,2.41-41.89,3.07-62.54,1.99-3.45-.17-5.69-3.77-4.36-6.91,18.07-42.97,40.32-84.54,66.65-124.65,5.51-8.41,11.16-16.74,17.02-25.01,4.46-6.28,8.96-12.38,13.46-18.35,1.92-2.55,3.17-5.48,3.66-8.61v-.03c1.26-8.09,2.51-16.15,3.77-24.17,1.05-6.59,2.06-13.18,3.1-19.71l.7-4.39,1.95-12.17c.28-2.06-1.01-3.98-3-4.39-5.75-1.19-11.4-2.3-16.95-3.35-2.55-.49-5.16.38-6.84,2.37-15,17.65-30.17,36.87-45.03,57.65-2.51,3.52-5.06,7.15-7.6,10.81-23.72,34.28-47.54,74.32-68.88,120.05-7.18,15.35-3,33.59,10.25,44.15,10.43,8.3,18.52,13.74,13.64,14.44-8.34,1.19-44.71-5.58-63.76-11.23-.77-.21-1.5-.42-2.23-.66-.35-.1-.73-.21-1.08-.31-.94-.24-1.88-.52-2.86-.84-.52-.14-1.05-.31-1.6-.49-.45-.1-.91-.24-1.36-.42-.84-.28-1.47-.45-1.92-.59-.14-.03-.28-.07-.45-.14-.14-.03-.21-.07-.21-.07-8.96-2.79-17.89-5.96-26.79-9.49-2.41-.94-3.66-3.59-2.96-6.07,4.99-18.07,8.68-35.61,10.6-52.39,1.99-17.16-11.68-32.51-29.65-31.84-14.13.52-25.53,11.89-27.2,25.95-1.19,9.8-3.03,19.98-5.51,30.48-.77,3.24-4.5,4.81-7.39,3.14-20.54-12.21-40.84-26.3-60.9-42.34-13.18-10.53-25.64-21.45-37.35-32.51Z"/>
  </g>
</svg>
