<?xml version="1.0" encoding="UTF-8"?>
<svg xmlns="http://www.w3.org/2000/svg" xmlns:xlink="http://www.w3.org/1999/xlink" viewBox="0 0 330.2 101.3">
  <defs>
    <radialGradient id="Summer_Green_Radial" cx="42.1" cy="45.5" fx="42.1" fy="45.5" r="36.7" gradientUnits="userSpaceOnUse">
      <stop offset="0" stop-color="#77c697"/>
      <stop offset=".3" stop-color="#37bb80"/>
      <stop offset=".5" stop-color="#00b36c"/>
      <stop offset=".5" stop-color="#00b169"/>
      <stop offset="1" stop-color="#00a652"/>
    </radialGradient>
    <linearGradient id="Blue" x1="60.3" y1="19.2" x2="60.3" y2="78.5" gradientUnits="userSpaceOnUse">
      <stop offset="0" stop-color="#2bc4f3"/>
      <stop offset=".5" stop-color="#00aeee"/>
      <stop offset="1" stop-color="#0095da"/>
    </linearGradient>
  </defs>
  <g>
    <path fill="#fff" d="M150.2,54.2v15.2c0,2.6-2.2,4.9-4.9,4.9s-4.9-2.3-4.9-4.9v-15.2c0-6.2-3.9-10.9-9.8-10.9s-10.6,4.7-10.6,10.6v15.8c0,2.6-2.2,4.6-4.9,4.6s-4.9-2.1-4.9-4.6V20.7c0-2.6,2.2-4.9,4.9-4.9s4.9,2.3,4.9,4.9v18c1.8-1.7,5.7-4.4,11.4-4.4,11.3,0,18.9,8.2,18.9,20h0Z"/>
    <path fill="#fff" d="M195.9,69.2c0,2.8-2.5,5.2-5.2,5.2s-4.6-2.3-4.6-4.1c-1.8,1.7-6,4.1-10.9,4.1-10.8,0-19.5-8.9-19.5-20.1s8.8-20,19.5-20,9.1,2.4,10.9,4.1c0-1.8,2-4.1,4.6-4.1s5.2,2.4,5.2,5.2v29.7h0ZM176.1,43.2c-6.1,0-10.9,5.1-10.9,11s4.6,11.2,10.9,11.2,10.6-4.8,10.6-11.2-4.5-11-10.6-11Z"/>
    <path fill="#fff" d="M211.1,18.9c3.3,0,6,2.7,6,6s-2.7,6-6,6-6-2.7-6-6,2.7-6,6-6ZM216,69.4c0,2.6-2.2,4.9-4.9,4.9s-4.9-2.3-4.9-4.9v-29.4c0-2.6,2.2-4.9,4.9-4.9s4.9,2.3,4.9,4.9v29.4Z"/>
    <path fill="#fff" d="M226.3,20.7c0-2.6,2.2-4.9,4.9-4.9s4.9,2.3,4.9,4.9v17.8s4.2-4.2,10.9-4.2c10.9,0,19.3,8.8,19.3,20s-8.2,20.1-18.8,20.1-9.6-2.4-11.7-4.2c0,1.8-1.9,4.2-4.6,4.2s-4.9-2.3-4.9-4.9V20.7h0ZM246.1,65.4c6.5,0,10.9-5.1,10.9-11.2s-4.5-10.9-10.9-10.9-10.7,4.5-10.7,10.9,4.5,11.2,10.7,11.2h0Z"/>
    <path fill="#fff" d="M291.1,74.3c-11.4,0-20.3-8.9-20.3-20.1s8.9-20,20.3-20,20.3,8.9,20.3,20-9,20.1-20.3,20.1ZM291.1,43.3c-6.1,0-10.9,5-10.9,10.9s4.6,11.2,10.9,11.2,10.8-5.2,10.8-11.2-4.7-10.9-10.8-10.9Z"/>
    <path fill="#fff" d="M324.6,62.3c3.3,0,6,2.7,6,6s-2.7,6-6,6-6-2.7-6-6,2.7-6,6-6ZM324.6,18.9c2.8,0,5,2.3,5,5v29.3c0,2.7-2.2,5-5,5s-5-2.3-5-5v-29.3c0-2.7,2.2-5,5-5h0Z"/>
    <path fill="url(#Summer_Green_Radial)" d="M75.2,9.9s-13.2,16.7-19.6,41.8c-2.7,10.8-11.9,20.8-12.4,33.7,0,0-2,.3-2.5-.1-10.2-8.4-13.1-15.1-13.1-15.1l-3.1-6.8,10-25-2.7,3-17.6-10.8-3.4-8.5-1.9-11.5s15.9,1.2,18.8,0c6-2.5,11.7-4.6,11.7-4.6l9.1-.5s22.5.8,26.7,4.4Z"/>
    <path fill="url(#Blue)" d="M73.8,19.2s.5,33.8-23.7,59.3l-3.2-5.1,8.8-21.7,6.3-19,11.8-13.5Z"/>
    <path fill="#fff" d="M33.9,28.2h0c-.7,0-1.3-.3-1.7-.8-.5-.5-.7-1.2-.6-2,0-.5,0-1,0-1.4-2.1-2.1-3.4-4.5-3.9-7.4h0c0-.5-.2-1-.1-1.6,0,0,0-.2,0-.3,0-.2,0-.4,0-.5,0-.1,0-.3,0-.4,0-.6,0-1.2.1-1.6.9-5.4,5-9.5,10.5-10.6.8-.1,1.5-.2,2.1-.2s.1,0,.2,0c.1,0,.3,0,.4,0s.3,0,.4,0h0c3.3,0,6.6,1.3,9.1,3.7,2.4,2.3,3.8,5.6,3.9,9v.8c0,2.6-.9,5.2-2.5,7.4-2.5,3.4-6.5,5.3-10.9,5.3h0c-1.2,0-2.5-.2-3.7-.5,0,0,0,0-.1,0-.7.3-1.4.6-2.1.9h-.2c0,0-.5.2-.5.2h-.4ZM40.8,11.4c-.7,0-1.3.2-1.8.6-.7.5-1.1,1.2-1.3,2-.1.8,0,1.7.5,2.3.6.8,1.5,1.3,2.6,1.3s1.3-.2,1.8-.6h.1c1.3-1.1,1.6-3,.6-4.4-.6-.8-1.5-1.3-2.6-1.3Z"/>
    <path fill="#fff" d="M42.2,101.3c-1.4,0-2.8-.5-3.8-1.4-3.4-2.8-6.7-6-9.7-9.3-3-3.2-5.8-6.6-8.4-10.1-5.4-7.1-9.7-14.9-12.9-23.2h0s0,0,0,0c-.2-.7-.5-1.4-.7-2.1-.5-1.4-1-2.8-1.4-4.2h0s0,0,0,0c-.1-.5-.3-1-.4-1.6-.4-1.6-.8-3.3-1.1-5h0s0,0,0,0c0-.7-.2-1.4-.3-2.1-.2-1.5-.4-3-.6-4.4h0s-.6-6.3-.6-6.3c-.6-5.8-1-11.7-1.5-17.4-.2-2.5-.4-5.1-.6-7.6v-.2c-.1-1.1.3-2.1,1-2.9.7-.8,1.8-1.2,2.8-1.2s.6,0,.9,0h0c5.9,1.4,12,2.4,18,3.2h0c2.1.3,4.3.4,6.4.5h2.8s-1.5,2.4-1.5,2.4c-.3.5-.6,1.1-.9,1.7l-.4.8h-.9c-1.8.3-3.8.4-5.9.4-.4,0-.7,0-1.1,0-2.9,0-5.8-.2-8.5-.3-1.4,0-2.8-.2-4.2-.3.2,1,.3,2,.5,3,.9,5.5,1.9,11.2,2.7,16.8l.9,6.2c.2,1.2.5,2.3.7,3.5.2.7.3,1.5.5,2.3.3,1,.6,2.1.9,3.1.2.8.5,1.7.7,2.5.4,1.1.8,2.2,1.2,3.3.3.7.5,1.4.8,2.1,2.6,6.3,6.4,12.7,12,20.1,2.4,3.2,5,6.2,7.7,9h0c.6.6,1.5,1.6,2.6,2.6.5.5,1.3.8,2,.8s1.5-.3,2-.8c1-.9,1.8-1.8,2.6-2.6,2.7-2.9,5.3-5.9,7.7-9h0c4.8-6.2,8.8-13,12-20.2.5-1.1.9-2.2,1.3-3.3.3-.7.5-1.4.8-2.1.3-1,.6-2,.9-3,.2-.8.5-1.7.8-2.6.3-1.1.5-2.3.7-3.5.1-.7.3-1.5.4-2.2.2-1.2.4-2.6.6-3.9.1-.7.2-1.5.3-2.2.9-6.3,1.9-12.7,2.9-18.9l.3-1.6c0-.4-.2-.8-.6-.8-5-1-9.4-1.8-13.6-2.2h0c-2.5-.3-5-.5-7.4-.5s-1,0-1.5,0h0c-.5,0-1.1,0-1.6.1h-.8c0,0-.5-.4-.5-.4-.3-.3-.6-.5-1-.8l-2.3-1.8,2.7-.9c.9-.3,1.9-.6,2.9-.7,3.2-.5,6.5-.8,9.7-.8.4,0,.8,0,1.1,0,2.5,0,5.1,0,8.4.3,3,.2,6.2.5,9.6.9,2,.3,3.5,2.1,3.3,4.1v.9c0,0,0,0,0,0-.1,2.1-.3,4.3-.4,6.4-.4,5.9-.8,12-1.3,17.9,0,.7-.1,1.4-.2,2.1-.1,1.4-.2,2.8-.4,4.2h0c0,.7-.2,1.4-.3,2.1-.2,1.5-.4,3-.7,4.5h0c-.1.6-.2,1.1-.4,1.7-.4,1.6-.7,3.3-1.2,4.9h0s0,0,0,0c-.2.7-.5,1.5-.7,2.2-.4,1.4-.9,2.8-1.4,4.1-3.2,8.3-7.5,16.1-12.8,23.2-2.5,3.5-5.4,6.9-8.4,10.1-3,3.3-6.2,6.4-9.6,9.2h0c-1.1,1-2.5,1.5-3.9,1.5Z"/>
    <circle fill="#fff" cx="40.7" cy="14.6" r="3.3"/>
    <path fill="#fff" d="M15.4,26.7c-1.8-1.7-3.5-3.4-5-5.1,0,0,0,0,0,0,.1.8,1.3,8,1.3,8.4l.6,4,.3,2.1s0,0,0,0c.3.3.6.5.9.8.6.5,1.3,1.1,1.9,1.6,3.8,3.1,7.8,5.8,11.8,8.1.8-.8,1.5-1.5,2-2,.2-.2.6,0,.5.3-.4,1.2-1.1,3.1-1.9,5-.6,1.4-1.2,2.8-1.8,4.1-.3.6-.6,1.2-.9,1.8-.5,1-1,2.1-1.6,3.1-.5,1-1.1,2.1-1.6,3.1h0c1.6,2.7,3.4,5.5,5.5,8.5,0,0,0,0,0,0,1.3-2.3,2.6-4.6,3.8-6.9,1.6-3.1,3.2-6.3,4.5-9.5-1.4-1.6-2.8-3-3.7-4.2-.3-.3,0-.8.5-.6,1.5.7,3,1.4,4.5,1.9,0,0,0,0,0,0,.4.1.7.3,1.1.4,0,0,.1,0,.2,0,2.6,1,5.2,1.8,7.8,2.5.1,0,.2,0,.3,0h0c2.3.6,4.3,1,5.5,1.3.4,0,.4.6,0,.8-1.6.5-4.3,1.4-6.8,2.3-.8,2.8-1.4,5.8-2,8.8-1.1,5.8-1.9,12-2.3,18.5,0,0,0,0,0,0,.8.4,1.7.5,2.5.1.3-.1.6-.3.8-.5.5-.5.9-.9,1.4-1.4.4-.4.8-.9,1.2-1.3.3-.3.6-.6.8-.9.7-.7,1.3-1.5,2-2.2.2-.2.4-.5.6-.7h0c.6-5.5,1.6-11,2.9-16.3.5-2.1,1.1-4.2,1.8-6.3.1-.3.5-.6.8-.5,2.1.2,4.2.3,6.4.3,1.1,0,2.2,0,3.3,0t0,0c.3-.7.7-1.4,1-2.1.1-.3.3-.6.4-.9.3-.7.6-1.4.8-2.1.2-.4.3-.9.5-1.3.2-.6.4-1.2.7-1.8,0,0,0-.2.1-.3,0-.2.1-.4.2-.6-3.3.4-6.5.5-9.8.3-.5,0-.9-.6-.7-1.1,2.8-6.7,6.3-13.2,10.4-19.5.9-1.3,1.7-2.6,2.7-3.9.7-1,1.4-1.9,2.1-2.9.3-.4.5-.9.6-1.3h0c.2-1.3.4-2.5.6-3.8.2-1,.3-2.1.5-3.1v-.7c.1,0,.4-1.9.4-1.9,0-.3-.2-.6-.5-.7-.9-.2-1.8-.4-2.6-.5-.4,0-.8,0-1.1.4-2.3,2.8-4.7,5.8-7,9-.4.6-.8,1.1-1.2,1.7-3.7,5.4-7.4,11.6-10.8,18.7-1.1,2.4-.5,5.2,1.6,6.9,1.6,1.3,2.9,2.1,2.1,2.3-1.3.2-7-.9-10-1.8-.1,0-.2,0-.3-.1,0,0-.1,0-.2,0-.1,0-.3,0-.4-.1,0,0-.2,0-.3,0,0,0-.1,0-.2,0-.1,0-.2,0-.3,0,0,0,0,0,0,0,0,0,0,0,0,0-1.4-.4-2.8-.9-4.2-1.5-.4-.1-.6-.6-.5-.9.8-2.8,1.4-5.6,1.7-8.2.3-2.7-1.8-5.1-4.6-5-2.2,0-4,1.9-4.2,4.1-.2,1.5-.5,3.1-.9,4.8-.1.5-.7.8-1.2.5-3.2-1.9-6.4-4.1-9.5-6.6-2.1-1.6-4-3.3-5.8-5.1Z"/>
  </g>
</svg>
