<?xml version="1.0" encoding="UTF-8"?>
<svg xmlns="http://www.w3.org/2000/svg" xmlns:xlink="http://www.w3.org/1999/xlink" viewBox="0 0 303.5 383.4">
  <defs>
    <radialGradient id="Summer_Green_Radial" cx="152.7" cy="124.1" fx="152.7" fy="124.1" r="98.4" gradientUnits="userSpaceOnUse">
      <stop offset="0" stop-color="#77c697"/>
      <stop offset=".3" stop-color="#37bb80"/>
      <stop offset=".5" stop-color="#00b36c"/>
      <stop offset=".5" stop-color="#00b169"/>
      <stop offset="1" stop-color="#00a652"/>
    </radialGradient>
    <linearGradient id="Blue" x1="201.4" y1="53.6" x2="201.4" y2="212.5" gradientUnits="userSpaceOnUse">
      <stop offset="0" stop-color="#2bc4f3"/>
      <stop offset=".5" stop-color="#00aeee"/>
      <stop offset="1" stop-color="#0095da"/>
    </linearGradient>
  </defs>
  <g>
    <path fill="url(#Summer_Green_Radial)" d="M241.4,28.8s-35.4,44.8-52.4,112.1c-7.3,28.8-31.8,55.7-33.2,90.2,0,0-5.4.7-6.7-.3-27.3-22.5-35.2-40.6-35.2-40.6l-8.3-18.2,26.8-67-7.2,7.9-47.1-28.9-9.1-22.6-5-30.8s42.6,3.3,50.2.1c16.1-6.8,31.3-12.4,31.3-12.4l24.4-1.4s60.3,2.1,71.5,11.8Z"/>
    <path fill="url(#Blue)" d="M237.5,53.6s1.4,90.5-63.6,158.9l-8.5-13.6,23.6-58.1,16.9-51,31.6-36.2Z"/>
    <path fill="#fff" d="M130.7,77.7h-.1c-1.8,0-3.4-.9-4.6-2.3-1.2-1.4-1.8-3.3-1.7-5.3,0-1.4,0-2.7,0-3.8-5.7-5.6-9.2-12.2-10.4-19.7h0c-.2-1.3-.4-2.7-.3-4.3,0-.3,0-.5,0-.8,0-.5,0-1,0-1.5,0-.3,0-.7,0-1,0-1.6.2-3.1.4-4.4,2.4-14.4,13.5-25.5,28.2-28.3,2-.4,3.9-.6,5.7-.6s.4,0,.6,0c.4,0,.7,0,1.1,0s.8,0,1.1,0h0c9,0,17.8,3.6,24.3,9.8,6.5,6.3,10.3,15,10.4,24v2.3c0,6.9-2.3,13.9-6.7,19.9-6.6,9-17.3,14.1-29.2,14.1h0c-3.3,0-6.6-.4-9.8-1.2,0,0-.2,0-.3.1-1.9.9-3.7,1.7-5.6,2.5l-.5.2-1.4.2h-1ZM149.3,32.9c-1.8,0-3.5.5-4.9,1.6-1.8,1.3-3,3.3-3.4,5.5-.4,2.2.1,4.4,1.4,6.2,1.6,2.2,4.1,3.5,6.8,3.5s3.4-.5,4.9-1.6l.3-.2c3.5-2.8,4.2-7.8,1.6-11.5-1.6-2.2-4.1-3.5-6.8-3.5Z"/>
    <path fill="#fff" d="M152.9,273.7c-3.8,0-7.4-1.3-10.3-3.7-9.2-7.6-17.9-15.9-26-24.8-7.9-8.5-15.5-17.6-22.6-27.1-14.4-19-26-40-34.5-62.2h0c0,0,0-.2,0-.2-.6-1.9-1.3-3.8-1.9-5.6-1.3-3.7-2.6-7.5-3.7-11.3h0c0-.1,0-.2,0-.2-.3-1.4-.7-2.8-1-4.2-1.1-4.3-2.2-8.8-3-13.3h0c0,0,0-.2,0-.2-.3-1.9-.5-3.8-.8-5.7-.6-3.9-1.1-8-1.6-11.9h0c0-.1-1.5-16.8-1.5-16.8-1.5-15.5-2.7-31.3-3.9-46.5-.5-6.7-1.1-13.6-1.6-20.4v-.6c-.3-2.9.7-5.7,2.6-7.8,2-2.1,4.7-3.3,7.6-3.3s1.5,0,2.3.3h.2c15.9,3.7,32.1,6.6,48.1,8.5h0c5.7.8,11.5,1.2,17.2,1.2h7.5c0,0-4,6.4-4,6.4-.9,1.5-1.7,3-2.4,4.7l-1,2.3-2.5.3c-4.9.5-10.2.8-15.7.8-.9,0-1.9,0-2.9,0-7.8,0-15.5-.4-22.7-.8-3.7-.3-7.4-.6-11.1-.9.4,2.7.9,5.3,1.3,8,2.5,14.7,5,29.9,7.2,44.9l2.5,16.5c.6,3.1,1.2,6.3,1.8,9.3.4,2,.8,4.1,1.3,6.1.7,2.7,1.5,5.5,2.3,8.2.7,2.2,1.3,4.4,1.9,6.7,1,3,2.2,6,3.3,8.9.7,1.8,1.5,3.8,2.1,5.7,7,16.8,17.2,33.9,32.2,53.8,6.5,8.5,13.4,16.6,20.6,24.1h0c1.6,1.7,4.1,4.2,7.1,7.1,1.5,1.4,3.4,2.2,5.4,2.2s4-.8,5.4-2.2c2.6-2.5,4.8-4.8,6.9-7.1,7.3-7.7,14.2-15.9,20.5-24.2h0c12.8-16.6,23.7-34.8,32.2-54.1,1.3-2.9,2.3-5.8,3.5-8.9.7-1.8,1.4-3.8,2.1-5.7.9-2.6,1.6-5.4,2.4-8,.6-2.3,1.3-4.6,2-6.9.8-3,1.4-6,2-9.2.4-1.9.7-3.9,1.2-5.9.6-3.3,1.1-6.9,1.6-10.4.3-1.9.5-3.9.8-5.9,2.4-16.9,5.1-34,7.7-50.5l.7-4.3c.2-1-.5-2-1.5-2.2-13.3-2.7-25.3-4.7-36.5-6h0c-6.6-.9-13.3-1.3-19.8-1.3s-2.7,0-4.1,0h0c-1.5,0-2.9.1-4.3.3l-2,.3-1.4-1.4c-.7-.7-1.5-1.4-2.6-2.2l-6-4.8,7.3-2.5c2.5-.8,5.1-1.5,7.9-2,8.5-1.4,17.3-2.1,26.1-2.2,1,0,2,0,3.1,0,6.6,0,13.5.3,22.6.8,8.1.6,16.7,1.2,25.6,2.4,5.4.8,9.3,5.6,8.9,11l-.2,2.4h0c-.4,5.7-.8,11.5-1.2,17.1-1.1,15.7-2.2,32-3.6,48-.2,1.9-.3,3.8-.5,5.7-.3,3.6-.5,7.4-1,11.3h0c-.3,1.9-.5,3.8-.7,5.7-.5,4-1,8-1.8,12.1h0c-.3,1.6-.6,3-1,4.4-1,4.3-1.9,8.8-3.2,13.1h0c0,0,0,.2,0,.2-.7,1.9-1.3,3.9-1.9,5.8-1.2,3.6-2.4,7.4-3.8,11-8.6,22.1-20.2,43-34.4,62-6.8,9.3-14.4,18.4-22.4,27.2-7.9,8.7-16.6,17.1-25.6,24.8l-.2.2c-2.9,2.4-6.6,3.8-10.3,3.8Z"/>
    <circle fill="#fff" cx="148.9" cy="41.3" r="8.8"/>
    <path fill="#fff" d="M81,73.8c-4.8-4.5-9.3-9.1-13.5-13.7,0,0,0,0,0,0,.4,2.1,3.4,21.3,3.6,22.5l1.7,10.8.9,5.7s0,0,0,0c.8.7,1.6,1.4,2.5,2.1,1.7,1.4,3.4,2.8,5.1,4.2,10.3,8.3,20.8,15.5,31.6,21.6,2.1-2.1,4-4,5.4-5.4.6-.6,1.6,0,1.4.8-1,3.3-2.9,8.3-5.2,13.5-1.6,3.7-3.3,7.5-4.9,11-.8,1.6-1.5,3.3-2.3,4.9-1.4,2.8-2.7,5.5-4.2,8.3-1.4,2.8-2.9,5.6-4.4,8.3h0c4.2,7.3,9.1,14.8,14.7,22.7,0,0,0,0,0,0,3.4-6.1,6.8-12.2,10.1-18.5,4.3-8.4,8.4-16.9,12.1-25.4-3.8-4.3-7.6-8.2-10-11.1-.7-.8.2-2.1,1.2-1.6,3.9,1.9,7.9,3.6,11.9,5.2,0,0,0,0,0,0,1,.4,2,.8,3,1.2.1,0,.3.1.4.2,6.9,2.6,13.9,4.8,20.9,6.6.3,0,.6.2.9.2h0c6.2,1.6,11.4,2.7,14.8,3.4,1,.2,1.1,1.7,0,2-4.4,1.3-11.6,3.6-18.2,6.1-2,7.6-3.9,15.4-5.5,23.5-3.1,15.6-5.2,32.2-6.1,49.6,0,0,0,0,0,0,.8.4,1.7.5,2.5.1.3-.1.6-.3.8-.5.5-.5.9-.9,1.4-1.4.4-.4.8-.9,1.2-1.3.3-.3.6-.6.8-.9.7-.7,1.3-1.5,2-2.2.2-.2.4-.5.6-.7h0c.6-5.5,1.6-11,2.9-16.3.5-2.1,1.1-4.2,1.8-6.3.1-.3.5-.6.8-.5,2.1.2,4.2.3,6.4.3,1.1,0,2.2,0,3.3,0t0,0c.3-.7.7-1.4,1-2.1.1-.3.3-.6.4-.9.3-.7.6-1.4.8-2.1.2-.4.3-.9.5-1.3.2-.6.4-1.2.7-1.8,0,0,0-.2.1-.3,0-.2.1-.4.2-.6-3.3.4-6.5.5-9.8.3-.5,0-.9-.6-.7-1.1,2.8-6.7,6.3-13.2,10.4-19.5.9-1.3,1.7-2.6,2.7-3.9.7-1,1.4-1.9,2.1-2.9.3-.4.5-.9.6-1.3h0c.2-1.3.4-2.5.6-3.8.2-1,.3-2.1.5-3.1v-.7c.1,0,.4-1.9.4-1.9,0-.3-.2-.6-.5-.7-.9-.2-1.8-.4-2.6-.5-.4,0-.8,0-1.1.4-2.3,2.8-4.7,5.8-7,9-.4.6-.8,1.1-1.2,1.7-3.7,5.4-7.4,11.6-10.8,18.7-1.1,2.4-.5,5.2,1.6,6.9,1.6,1.3,2.9,2.1,2.1,2.3-1.3.2-7-.9-10-1.8-.1,0-.2,0-.3-.1,0,0-.1,0-.2,0-.1,0-.3,0-.4-.1,0,0-.2,0-.3,0,0,0-.1,0-.2,0-.1,0-.2,0-.3,0,0,0,0,0,0,0,0,0,0,0,0,0-1.4-.4-2.8-.9-4.2-1.5-.4-.1-.6-.6-.5-.9.8-2.8,1.4-5.6,1.7-8.2.3-2.7-1.8-5.1-4.6-5-2.2,0-4,1.9-4.2,4.1-.2,1.5-.5,3.1-.9,4.8-.1.5-.7.8-1.2.5-3.2-1.9-6.4-4.1-9.5-6.6-2.1-1.6-4-3.3-5.8-5.1Z"/>
    <path fill="#fff" d="M55.2,355.8v20.9c0,3.6-3.1,6.8-6.8,6.8s-6.8-3.2-6.8-6.8v-20.9c0-8.6-5.4-15-13.5-15s-14.6,6.5-14.6,14.6v21.7c0,3.6-3.1,6.4-6.8,6.4S0,380.5,0,377v-67.4c0-3.6,3.1-6.8,6.8-6.8s6.8,3.2,6.8,6.8v24.7c2.6-2.3,7.8-6,15.7-6,15.6,0,26,11.3,26,27.5h0Z"/>
    <path fill="#fff" d="M118.2,376.3c0,3.8-3.5,7.1-7.1,7.1s-6.3-3.2-6.3-5.6c-2.4,2.3-8.3,5.6-14.9,5.6-14.8,0-26.8-12.3-26.8-27.7s12.1-27.5,26.8-27.5,12.5,3.3,14.9,5.6c0-2.4,2.8-5.6,6.3-5.6s7.1,3.3,7.1,7.1v40.9h0ZM90.9,340.6c-8.4,0-14.9,7-14.9,15.2s6.4,15.4,14.9,15.4,14.6-6.7,14.6-15.4-6.2-15.2-14.6-15.2Z"/>
    <path fill="#fff" d="M139,307.1c4.6,0,8.3,3.7,8.3,8.3s-3.7,8.3-8.3,8.3-8.3-3.7-8.3-8.3,3.7-8.3,8.3-8.3ZM145.8,376.6c0,3.6-3.1,6.8-6.8,6.8s-6.8-3.2-6.8-6.8v-40.5c0-3.6,3.1-6.8,6.8-6.8s6.8,3.2,6.8,6.8v40.5Z"/>
    <path fill="#fff" d="M159.9,309.6c0-3.6,3.1-6.8,6.8-6.8s6.8,3.2,6.8,6.8v24.5s5.7-5.8,15.1-5.8c14.9,0,26.5,12.1,26.5,27.5s-11.2,27.7-25.9,27.7-13.2-3.3-16.1-5.7c0,2.4-2.7,5.7-6.4,5.7s-6.8-3.2-6.8-6.8v-67h0ZM187.1,371.1c8.9,0,14.9-7,14.9-15.4s-6.2-15-14.9-15-14.7,6.3-14.7,15,6.1,15.4,14.7,15.4Z"/>
    <path fill="#fff" d="M249.2,383.4c-15.7,0-27.9-12.3-27.9-27.7s12.3-27.5,27.9-27.5,27.9,12.2,27.9,27.5-12.4,27.7-27.9,27.7ZM249.2,340.7c-8.4,0-14.9,6.9-14.9,15s6.4,15.4,14.9,15.4,14.8-7.2,14.8-15.4-6.5-15-14.8-15h0Z"/>
    <path fill="#fff" d="M295.2,366.9c4.5,0,8.3,3.7,8.3,8.3s-3.7,8.3-8.3,8.3-8.3-3.7-8.3-8.3,3.7-8.3,8.3-8.3ZM295.2,307.1c3.8,0,6.9,3.2,6.9,6.9v40.3c0,3.7-3.1,6.9-6.9,6.9s-6.9-3.2-6.9-6.9v-40.3c0-3.7,3.1-6.9,6.9-6.9h0Z"/>
  </g>
</svg>
